<svg width="24" height="25" viewBox="0 0 24 25" fill="none" xmlns="http://www.w3.org/2000/svg">
<path d="M6 6.58961V10.2036C6.00014 11.489 6.27502 12.7596 6.80622 13.9301C7.33741 15.1006 8.11266 16.1441 9.08 16.9906L12 19.5456L14.92 16.9906C15.8874 16.1442 16.6627 15.1007 17.1939 13.9302C17.7251 12.7596 17.9999 11.489 18 10.2036V6.58961L12 4.33961L6 6.58961ZM4.649 4.95961L12 2.20361L19.351 4.96061C19.5416 5.03205 19.7058 5.15993 19.8218 5.32719C19.9377 5.49444 19.9999 5.69309 20 5.89661V10.2036C20 13.3806 18.628 16.4036 16.237 18.4966L12 22.2036L7.763 18.4966C6.58096 17.4623 5.63369 16.1873 4.98469 14.757C4.33569 13.3268 3.99996 11.7743 4 10.2036V5.89661C4.00008 5.69309 4.06225 5.49444 4.17822 5.32719C4.29419 5.15993 4.45843 5.03205 4.649 4.96061V4.95961ZM10.939 12.4716L14.475 8.93561C14.6636 8.75346 14.9162 8.65266 15.1784 8.65494C15.4406 8.65722 15.6914 8.76239 15.8768 8.94779C16.0622 9.1332 16.1674 9.38402 16.1697 9.64621C16.172 9.90841 16.0712 10.161 15.889 10.3496L11.646 14.5936C11.4585 14.7811 11.2042 14.8864 10.939 14.8864C10.6738 14.8864 10.4195 14.7811 10.232 14.5936L8.111 12.4726C7.92884 12.284 7.82805 12.0314 7.83033 11.7692C7.8326 11.507 7.93777 11.2562 8.12318 11.0708C8.30859 10.8854 8.5594 10.7802 8.8216 10.7779C9.0838 10.7757 9.3364 10.8765 9.525 11.0586L10.939 12.4726V12.4716Z" fill="#0F172A"/>
</svg>
